<?xml version="1.0" encoding="utf-8"?>
<!-- Generator: Adobe Illustrator 16.0.0, SVG Export Plug-In . SVG Version: 6.00 Build 0)  -->
<!DOCTYPE svg PUBLIC "-//W3C//DTD SVG 1.1//EN" "http://www.w3.org/Graphics/SVG/1.1/DTD/svg11.dtd">
<svg version="1.1" id="Layer_1" xmlns="http://www.w3.org/2000/svg" xmlns:xlink="http://www.w3.org/1999/xlink" x="0px" y="0px"
	 width="300px" height="300px" viewBox="0 0 300 300" style="enable-background:new 0 0 300 300;" xml:space="preserve">
<g style="opacity:5.000000e-002;">
	<g>
		<path style="fill:#FFFFFF;" d="M280.4,81.5c-10.3,0-18.6,13.1-18.6,29.2V181c0,11.1-5.7,20-12.8,20c-0.4,0-0.8,0-1.2-0.1
			c-0.8-0.3-1.5-0.5-2.3-0.7c-0.8-0.2-1.5-0.2-2.3-0.2s-1.6,0.1-2.3,0.2c-0.8,0.2-1.6,0.4-2.3,0.7c-0.4,0.1-0.8,0.1-1.2,0.1
			c-7.1,0-12.8-9-12.8-20v-11c0-16.1-8.3-29.2-18.6-29.2c-7.2,0-13.5,6.5-16.6,15.9c-0.2,0.7-0.5,1.5-0.7,2.3
			c-2.2,6.3-6.4,10.5-11.2,10.5c-1,0-2-0.2-2.9-0.5c-0.4-0.2-0.9-0.4-1.4-0.6c-1.4-0.6-2.9-0.9-4.5-0.9c-10.3,0-18.6,13.1-18.6,29.2
			v-85.9c0-16.1-8.3-29.2-18.6-29.2s-18.6,13.1-18.6,29.2V181c0,11.1-5.7,20-12.8,20c-0.4,0-0.8,0-1.2-0.1c-0.8-0.3-1.5-0.5-2.3-0.7
			c-0.8-0.2-1.5-0.2-2.3-0.2s-1.6,0.1-2.3,0.2c-0.8,0.2-1.6,0.4-2.3,0.7c-0.4,0.1-0.8,0.1-1.2,0.1c-7.1,0-12.8-9-12.8-20v-11
			c0-16.1-8.3-29.2-18.6-29.2c-7.2,0-13.5,6.5-16.6,15.9c-0.2,0.7-0.5,1.5-0.7,2.3c-2.2,6.3-6.4,10.5-11.2,10.5c-1,0-2-0.2-2.9-0.5
			c-0.4-0.2-0.9-0.4-1.4-0.6c-1.4-0.6-2.9-0.9-4.5-0.9C9.3,167.5,1,180.6,1,196.7v103.5c0,16.1,8.3,29.2,18.6,29.2
			s18.6-13.1,18.6-29.2c0,16.1,8.3,29.2,18.6,29.2s18.6-13.1,18.6-29.2c0,16.1,8.3,29.2,18.6,29.2s18.6-13.1,18.6-29.2
			c0,16.1,8.3,29.2,18.6,29.2s18.6-13.1,18.6-29.2c0,16.1,8.3,29.2,18.6,29.2s18.6-13.1,18.6-29.2c0,16.1,8.3,29.2,18.6,29.2
			s18.6-13.1,18.6-29.2c0,16.1,8.3,29.2,18.6,29.2s18.6-13.1,18.6-29.2c0,16.1,8.3,29.2,18.6,29.2s18.6-13.1,18.6-29.2V110.7
			C299,94.6,290.7,81.5,280.4,81.5z"/>
	</g>
</g>
</svg>
