<?xml version="1.0" encoding="utf-8"?>
<!-- Generator: Adobe Illustrator 22.0.0, SVG Export Plug-In . SVG Version: 6.00 Build 0)  -->
<!DOCTYPE svg PUBLIC "-//W3C//DTD SVG 1.1//EN" "http://www.w3.org/Graphics/SVG/1.1/DTD/svg11.dtd" [
	<!ENTITY ns_extend "http://ns.adobe.com/Extensibility/1.0/">
	<!ENTITY ns_ai "http://ns.adobe.com/AdobeIllustrator/10.0/">
	<!ENTITY ns_graphs "http://ns.adobe.com/Graphs/1.0/">
	<!ENTITY ns_vars "http://ns.adobe.com/Variables/1.0/">
	<!ENTITY ns_imrep "http://ns.adobe.com/ImageReplacement/1.0/">
	<!ENTITY ns_sfw "http://ns.adobe.com/SaveForWeb/1.0/">
	<!ENTITY ns_custom "http://ns.adobe.com/GenericCustomNamespace/1.0/">
	<!ENTITY ns_adobe_xpath "http://ns.adobe.com/XPath/1.0/">
	<!ENTITY st0 "fill:#C7CBD1;">
	<!ENTITY st1 "fill:#FFFFFF;">
	<!ENTITY st2 "fill:#EAECEF;">
	<!ENTITY st3 "fill:none;">
	<!ENTITY st4 "fill:#353535;">
	<!ENTITY st5 "clip-path:url(#SVGID_2_);fill:#2A2A2A;">
	<!ENTITY st6 "clip-path:url(#SVGID_2_);">
	<!ENTITY st7 "fill:#2F8BE6;">
	<!ENTITY st8 "fill:#EF3D70;">
	<!ENTITY st9 "fill:url(#SVGID_3_);">
	<!ENTITY st10 "fill:#696969;">
	<!ENTITY st11 "clip-path:url(#SVGID_5_);">
	<!ENTITY st12 "fill:#EB9481;">
	<!ENTITY st13 "fill:#FAB6A7;">
	<!ENTITY st14 "fill:#61382F;">
	<!ENTITY st15 "fill:#F27961;">
	<!ENTITY st16 "opacity:0.2;fill:#1C1C1E;">
	<!ENTITY st17 "opacity:0.5;">
	<!ENTITY st18 "fill:#474A59;">
	<!ENTITY st19 "fill:#2A2A2A;">
	<!ENTITY st20 "fill:#DD1B5C;">
	<!ENTITY st21 "fill:#1775C1;">
	<!ENTITY st22 "opacity:0.2;clip-path:url(#SVGID_2_);fill:#1C1C1E;">
	<!ENTITY st23 "fill:#393B47;">
	<!ENTITY st24 "fill:url(#SVGID_6_);">
	<!ENTITY st25 "fill:#6A6E85;">
	<!ENTITY st26 "fill:#FBC02D;">
	<!ENTITY st27 "opacity:0.3;fill:#FFFFFF;">
]>
<svg version="1.1" xmlns:x="&ns_extend;" xmlns:i="&ns_ai;" xmlns:graph="&ns_graphs;"
	 xmlns="http://www.w3.org/2000/svg" xmlns:xlink="http://www.w3.org/1999/xlink" x="0px" y="0px" viewBox="0 0 500 377"
	 style="enable-background:new 0 0 500 377;" xml:space="preserve">
<metadata>
	<sfw  xmlns="&ns_sfw;">
		<slices></slices>
		<sliceSourceBounds  bottomLeftOrigin="true" height="391" width="423.3" x="26.5" y="-462.9"></sliceSourceBounds>
	</sfw>
</metadata>
<g id="BACKGROUND">
</g>
<g id="OBJECTS">
	<g>
		<g>
			<g id="XMLID_4168_">
				<g>
					<path style="&st0;" d="M163.2,80.7c3.6,0.4,5.8,0.5,5.9,0c0.1-0.5-1.8-1.5-5.3-2.7c0.3-1.6,0.4-3.2,0.4-4.8l0,0
						c13.6,4.5,22.2,8.9,21.7,11.4c-0.6,2.5-10.3,2.6-24.5,0.6c-7.7-1.1-16.7-2.8-26.2-5c-9.5-2.2-18.4-4.7-25.7-7.2
						c-13.6-4.5-22.3-8.9-21.7-11.4c0.6-2.5,10.3-2.6,24.5-0.6c-0.2,0.4-0.4,0.8-0.6,1.3c-0.5,1.1-0.8,2.1-1.1,3.2
						c-3.6-0.4-5.8-0.5-5.9,0c-0.1,0.5,1.8,1.4,5.3,2.7c5.6,2,15.3,4.7,26.4,7.3C147.4,78.2,157.3,80,163.2,80.7z"/>
					<path style="&st1;" d="M161.5,85.3c-6.4,13-21.9,18.8-35.4,13.1c-10.4-4.5-16.6-14.6-16.6-25.2c7.4,2.4,16.2,4.9,25.7,7.2
						C144.8,82.5,153.8,84.2,161.5,85.3z M164.3,73.2c0-10.6-6.2-20.8-16.6-25.2c-13.5-5.8-29,0.1-35.4,13.1
						c-0.2,0.4-0.4,0.8-0.6,1.3c-0.5,1.1-0.8,2.1-1.1,3.2c-0.3,0.9-0.5,1.8-0.6,2.7c5.6,2,15.3,4.7,26.4,7.3
						c11.1,2.6,20.9,4.5,26.9,5.2c0.3-0.9,0.5-1.8,0.6-2.7C164.1,76.4,164.3,74.8,164.3,73.2z"/>
					<g>
						<path style="&st2;" d="M135.2,80.2c-9.5-2.2-18.4-4.7-25.7-7.2c0,7.4,3,14.6,8.4,19.8c8.2-1.9,15.8-5.8,22-11.6
							C138.3,81,136.8,80.6,135.2,80.2z"/>
						<path style="&st2;" d="M109.9,68.3c5.6,2,15.3,4.7,26.4,7.3c2.6,0.6,5,1.2,7.4,1.7c3.1-3.6,5.6-7.7,7.6-12.2
							c1.8-4.1,2.9-8.3,3.5-12.6c-2.1-1.8-4.5-3.3-7.1-4.5c-13.5-5.8-29,0.1-35.4,13.1c-0.2,0.4-0.4,0.8-0.6,1.3
							c-0.5,1.1-0.8,2.1-1.1,3.2C110.3,66.5,110.1,67.4,109.9,68.3z"/>
					</g>
				</g>
				<g>
					<path style="&st3;" d="M109.9,68.3c0.2-0.9,0.4-1.8,0.6-2.7c0.3-1.1,0.7-2.2,1.1-3.2c0.2-0.4,0.4-0.9,0.6-1.3
						c6.4-13,21.9-18.8,35.4-13.1c10.4,4.5,16.6,14.6,16.6,25.2c0,1.6-0.2,3.2-0.4,4.8c-0.2,0.9-0.4,1.8-0.6,2.7l0,0"/>
					<path style="&st3;" d="M161.5,85.3c-6.4,13-21.9,18.8-35.4,13.1c-10.4-4.5-16.6-14.6-16.6-25.2"/>
					<path style="&st3;" d="M164.3,73.2c13.6,4.5,22.2,8.9,21.7,11.4c-0.6,2.5-10.3,2.6-24.5,0.6c-7.7-1.1-16.7-2.8-26.2-5
						c-9.5-2.2-18.4-4.7-25.7-7.2c-13.6-4.5-22.3-8.9-21.7-11.4c0.6-2.5,10.3-2.6,24.5-0.6"/>
					<path style="&st3;" d="M163.8,78L163.8,78c3.4,1.2,5.4,2.2,5.3,2.7c-0.1,0.5-2.3,0.5-5.9,0c-5.9-0.7-15.8-2.6-26.9-5.2
						c-11.1-2.6-20.7-5.3-26.4-7.3c-3.4-1.2-5.4-2.2-5.3-2.7c0.1-0.5,2.3-0.5,5.9,0"/>
				</g>
			</g>
		</g>
		<g>
			<path style="&st4;" d="M311.3,68.6c17.6-18,46.6-18.4,64.6-0.7c18,17.6,18.4,46.5,0.7,64.6c-17.6,18-46.6,18.4-64.6,0.7
				C294,115.6,293.7,86.7,311.3,68.6z"/>
			<path style="&st1;" d="M319.8,76.9c13.1-13.3,34.4-13.6,47.8-0.5c13.3,13.1,13.6,34.4,0.5,47.8c-13,13.3-34.4,13.6-47.8,0.5
				C307,111.7,306.8,90.3,319.8,76.9z"/>
			<path style="&st2;" d="M347.9,79.7c12.9,12.6,13.1,33.2,0.5,46c-2.9,3-6.3,5.3-9.9,6.9c10.2,1.7,21-1.4,28.7-9.3
				c12.6-12.9,12.3-33.5-0.5-46c-9.9-9.6-24.3-11.8-36.1-6.4C336.9,71.9,343,74.9,347.9,79.7z"/>
			<g>
				<path style="&st1;" d="M367.5,109.5c1.7-3.3,4.7-5.1,6.7-4.1c2,1,2.3,4.6,0.6,7.9c-1.7,3.3-4.7,5.1-6.7,4.1
					C366.1,116.3,365.8,112.8,367.5,109.5z"/>
				<path style="&st1;" d="M359.8,114.7c0.7-1.7,2.4-2.7,3.8-2.1c1.4,0.6,2,2.4,1.3,4.2c-0.7,1.7-2.4,2.7-3.8,2.1
					C359.6,118.3,359,116.4,359.8,114.7z"/>
				<path style="&st1;" d="M361.6,102.5c0.8-2.5,3.1-4.1,5-3.5c1.9,0.6,2.8,3.2,1.9,5.8c-0.8,2.5-3.1,4.1-5,3.5
					C361.6,107.6,360.7,105,361.6,102.5z"/>
				<path style="&st1;" d="M364.5,120.4c0.8-1,2.2-1.4,2.9-0.8c0.8,0.6,0.7,2-0.1,3c-0.8,1-2.2,1.4-2.9,0.8
					C363.6,122.8,363.7,121.4,364.5,120.4z"/>
				<path style="&st1;" d="M354.2,109.2c0.8-2.5,2.8-4.2,4.4-3.7c1.6,0.5,2.2,3,1.3,5.6c-0.8,2.5-2.8,4.2-4.4,3.7
					C353.9,114.3,353.4,111.8,354.2,109.2z"/>
			</g>
			<g>
				<g>
					<path style="&st0;" d="M374.3,106.5c1.2,1.1,1.1,3.9-0.2,6.4c-0.7,1.5-1.8,2.6-2.9,3.3c-0.6,0.4-1.7,0.9-2.7,0.4
						c-0.2-0.1-0.3-0.2-0.4-0.3c-1.2-1.1-1.1-3.9,0.2-6.4c1.4-2.8,4-4.5,5.6-3.7C374,106.3,374.1,106.4,374.3,106.5z"/>
				</g>
				<g>
					<path style="&st0;" d="M363.7,113.7c0.6,0.6,0.8,1.7,0.3,2.8c-0.5,1.3-1.8,2-2.7,1.6c-0.2-0.1-0.3-0.2-0.5-0.3
						c-0.6-0.6-0.8-1.7-0.3-2.8c0.3-0.7,0.7-1.2,1.3-1.5c0.5-0.3,1-0.3,1.4-0.1C363.4,113.4,363.6,113.5,363.7,113.7z"/>
				</g>
				<g>
					<path style="&st0;" d="M367,100.3c0.9,0.9,1.2,2.6,0.6,4.2c-0.7,2.1-2.5,3.4-3.9,2.9c-0.3-0.1-0.5-0.3-0.8-0.5
						c-0.9-0.9-1.2-2.6-0.6-4.2c0.4-1.1,1-1.9,1.8-2.5c0.7-0.5,1.5-0.6,2.1-0.4C366.6,99.9,366.8,100.1,367,100.3z"/>
				</g>
				<g>
					<path style="&st0;" d="M366.9,120.3c0.3,0.3,0.3,1.1-0.3,1.8c-0.6,0.7-1.4,0.9-1.7,0.6c0,0,0,0,0,0c-0.3-0.3-0.3-1.1,0.3-1.8
						c0.3-0.4,0.7-0.6,1-0.7C366.4,120.2,366.7,120.1,366.9,120.3C366.9,120.3,366.9,120.3,366.9,120.3z"/>
				</g>
				<g>
					<path style="&st0;" d="M358.7,106.6c0.7,0.6,1,2.3,0.3,4.2c-0.7,2.2-2.3,3.4-3.3,3.1c-0.2,0-0.3-0.1-0.4-0.3
						c-0.7-0.6-1-2.3-0.3-4.2c0.4-1.1,1-2,1.7-2.6c0.3-0.3,1-0.7,1.6-0.5C358.5,106.4,358.6,106.5,358.7,106.6z"/>
				</g>
			</g>
		</g>
		<g>
			<g>
				<defs>
					<path id="SVGID_1_" d="M284.2,82.1L262,22.7L126.2,73.4l22.2,59.4c-19.7,30.9-25.2,70.3-11.4,107.2
						c23.3,62.4,92.8,94.2,155.2,70.9c62.4-23.3,94.2-92.8,70.8-155.2C349.3,118.7,319.3,92.5,284.2,82.1z"/>
				</defs>
				<clipPath id="SVGID_2_">
					<use xlink:href="#SVGID_1_"  style="overflow:visible;"/>
				</clipPath>
				
					<ellipse transform="matrix(0.7071 -0.7071 0.7071 0.7071 -66.6634 234.7197)" style="&st5;" cx="250" cy="197.8" rx="120.7" ry="120.7"/>
				<g style="&st6;">
					<g>
						<path style="&st2;" d="M172.2,197.6c0,0-43.1,23.8-24.4,91.3c18.8,67.4,51.9,105.5,51.9,105.5l52.5-19.6L172.2,197.6z"/>
						<path style="&st2;" d="M311.3,145.7c0,0,48.2-10.3,78.2,53c30,63.2,29.9,113.7,29.9,113.7L367,332L311.3,145.7z"/>
					</g>
					<path style="&st1;" d="M297.8,136.5c-12.7-2.1-62.9,16.7-62.9,16.7l0,0.1l0-0.1c0,0-50.3,18.8-58.5,28.6
						c-8.5,10.2-13.1,19.9-3.4,45.7c5.4,14.6,15.8,42.3,26.3,70.3c15.7,42.1,49,78.3,49,78.3L371,330.5c0,0,1.4-49.2-14.3-91.3
						c-10.5-28-20.8-55.8-26.3-70.3C320.8,143.1,310.9,138.7,297.8,136.5z"/>
					<path style="&st4;" d="M260,262.2l27.3-10.2c28-10.4,42.2-41.7,31.8-69.6l-16.8-44.9c-1.5-0.3-2.9-0.6-4.5-0.9
						c-12.7-2.1-62.9,16.7-62.9,16.7l0,0.1l0-0.1c0,0-50.3,18.8-58.5,28.6c-1,1.2-1.9,2.4-2.8,3.6l16.8,44.9
						C200.8,258.3,232,272.6,260,262.2z"/>
					<path style="&st7;" d="M177.7,170.7l21.1,56.5c8.7,23.3,34.7,35.2,58,26.5l27.3-10.2c23.3-8.7,35.2-34.7,26.5-58L289.5,129
						L177.7,170.7z"/>
					<path style="&st4;" d="M291.5,122.1c13.6,36.4-2.2,75.9-35.3,88.2c-33.1,12.3-70.9-7.1-84.5-43.5
						c-13.6-36.4,2.2-75.9,35.3-88.2C240.1,66.2,277.9,85.7,291.5,122.1z"/>
					<g>
						<g>
							<path style="&st8;" d="M304.5,112.9c0.4,1,0,2.4-0.9,3.3l-9.4,8.6c-1.8,1.7-3.9,1.9-4.5,0.3l-12.3-32.9
								c-0.6-1.6,1.1-2.7,3.6-2.7l12.7,0.4c1.3,0,2.5,0.9,2.9,1.9L304.5,112.9z"/>
							<path style="&st8;" d="M155.9,168.3c0.4,1,1.6,1.8,2.9,1.9l12.8,0.4c2.5,0.1,4.2-1.1,3.6-2.7L162.8,135
								c-0.6-1.6-2.6-1.3-4.5,0.3L149,144c-0.9,0.9-1.3,2.3-1,3.3L155.9,168.3z"/>
						</g>
						
							<linearGradient id="SVGID_3_" gradientUnits="userSpaceOnUse" x1="1391.5352" y1="72.5609" x2="1393.7853" y2="206.8087" gradientTransform="matrix(0.9369 -0.3497 0.3497 0.9369 -1126.999 487.1804)">
							<stop  offset="0" style="stop-color:#FFFFFF"/>
							<stop  offset="1" style="stop-color:#E6E9FA"/>
						</linearGradient>
						<path style="&st9;" d="M292.1,105.5c13.6,36.4-4.9,76.9-41.3,90.5c-36.4,13.6-76.9-4.9-90.5-41.3
							c-13.6-36.4,4.9-76.9,41.3-90.5C238.1,50.6,278.6,69.1,292.1,105.5z"/>
						<path style="&st10;" d="M244,177.7c-36.3,13.6-73.9,3.2-83.7-23c-9.8-26.2,11.8-58.6,48.1-72.2c36.3-13.6,73.9-3.2,83.7,23
							C301.9,131.7,280.3,164.1,244,177.7z"/>
						<g>
							<defs>
								<path id="SVGID_4_" d="M290.3,106.2c9,24.2-12.3,54.5-47.7,67.7c-35.4,13.2-71.3,4.3-80.4-19.9c-9-24.2,12.3-54.5,47.7-67.7
									C245.3,73,281.2,82,290.3,106.2z"/>
							</defs>
							<clipPath id="SVGID_5_">
								<use xlink:href="#SVGID_4_"  style="overflow:visible;"/>
							</clipPath>
							<g style="&st11;">
								
									<rect x="146.8" y="59.9" transform="matrix(0.9369 -0.3497 0.3497 0.9369 -31.6709 87.602)" style="&st4;" width="160" height="143.2"/>
								<g>
									<path style="&st12;" d="M279.1,124c1.5,7.2-1.1,13.9-5.8,14.8c-4.7,1-9.7-4.1-11.2-11.4c-1.5-7.2,1.1-13.9,5.8-14.8
										C272.6,111.6,277.6,116.7,279.1,124z"/>
									<path style="&st12;" d="M182.3,160.1c3.6,6.4,10,9.7,14.1,7.4c4.2-2.4,4.6-9.5,1-15.9c-3.6-6.4-10-9.7-14.1-7.4
										C179.2,146.5,178.7,153.7,182.3,160.1z"/>
								</g>
								<path style="&st13;" d="M254.4,92.1c-12-17.8-45.4-8.1-45.4-8.1l0,0l0,0c0,0-31.5,14.6-28.9,35.9
									c2.6,21.3,14.9,45.1,22.5,56c7.6,10.9,29.7,17.7,45.2,12l0,0l0,0c15.5-5.8,27.7-25.5,26.3-38.6
									C272.7,135.9,266.4,109.8,254.4,92.1z"/>
								<path style="&st8;" d="M241.4,93.6c0,0,10.6,17.4,24.5,21.6c0,0,3-13.8-2.4-25.4c0,0,3.6,1.3,7.3,0.3
									c-4.3-6.8-13.7-18.6-25.2-19.8c0,0-16.8-9.6-40.7-0.7c-23.8,8.9-39.4,36.2-40.4,37.3c-1,1.2,1,4.9,5.1,4.3
									c-3.7,6.9-1.1,19,0.5,23.2c0.9,2.5,4-1.1,4-1.1s2.7,7.1,6.6,11.1c4,4,5.7,3.8,6.8,2.7c1.1-1.1,17.5-25.4,21.8-36.9
									c0,0,1.3,13.1,3.7,13.2c2.4,0.1,14.9-17.3,16.3-25.4c0,0,2.1,12.9,3.2,12.8C233.8,110.7,239.7,104.3,241.4,93.6z"/>
								<g>
									<path style="&st14;" d="M254.1,129.7c0.9,2.4,0.2,4.9-1.6,5.5c-1.8,0.7-4-0.7-4.9-3.1c-0.9-2.4-0.2-4.9,1.6-5.5
										C251,125.9,253.2,127.3,254.1,129.7z"/>
									<path style="&st14;" d="M241.5,123.3c-1.6,1.7-4.9-1.2-4.4-3.7c0.5-2.5,5-5.1,8.5-5.8c3.5-0.7,5.2,0.2,5.5,1.1
										C251.5,115.9,246.1,118.3,241.5,123.3z"/>
									<path style="&st14;" d="M205,148c0.9,2.4,3.1,3.8,4.9,3.1c1.8-0.7,2.5-3.1,1.6-5.5c-0.9-2.4-3.1-3.8-4.9-3.1
										C204.8,143.1,204.1,145.6,205,148z"/>
									<path style="&st14;" d="M210.2,135c2.3,0.3,2.9-4.1,0.9-5.7c-2-1.6-7.1-0.5-10.2,1.2c-3.1,1.8-3.8,3.5-3.4,4.5
										C197.9,135.9,203.5,134.2,210.2,135z"/>
								</g>
								<path style="&st15;" d="M231.2,141c-1.8,0-1.3,9.5-1.2,13.4c0,4,2.4,5.7,5,6.2c2.6,0.4,4.8-0.3,5.3-2.5
									C240.7,155.8,235,141,231.2,141z"/>
								<path style="&st14;" d="M251.8,165.2c0,0-0.3,0.1-0.9,0.2c-0.3,0-0.7,0.1-1.1,0.1c-0.4,0-0.9,0.1-1.3,0.2
									c-0.5,0.1-0.9,0.2-1.4,0.3c-0.5,0.1-1,0.3-1.6,0.5c-0.5,0.2-1.1,0.3-1.7,0.6c-0.5,0.3-1.1,0.5-1.7,0.8c-0.5,0.3-1,0.7-1.5,1
									c-0.6,0.3-1,0.7-1.4,1.1c-0.4,0.4-0.9,0.7-1.3,1.1c-0.4,0.4-0.7,0.7-1.1,1.1c-0.4,0.3-0.6,0.7-0.8,1
									c-0.2,0.3-0.5,0.6-0.6,0.8c-0.4,0.4-0.6,0.7-0.6,0.7l-0.1,0.1c-0.2,0.3-0.6,0.3-0.9,0.1c-0.2-0.2-0.3-0.4-0.2-0.6
									c0,0,0.1-0.3,0.3-0.9c0.1-0.3,0.2-0.7,0.4-1.1c0.2-0.4,0.3-0.9,0.6-1.3c0.3-0.5,0.6-1,1-1.5c0.3-0.5,0.8-1,1.3-1.5
									c0.5-0.5,1-1,1.6-1.4c0.6-0.4,1.2-0.8,1.8-1.2c0.7-0.3,1.3-0.6,2-0.9c0.7-0.3,1.4-0.4,2-0.6c0.7-0.1,1.3-0.3,2-0.3
									c0.7,0,1.3,0,1.8,0c0.6,0,1,0.1,1.4,0.2c0.4,0.1,0.8,0.2,1,0.3c0.6,0.2,0.9,0.3,0.9,0.3c0.3,0.1,0.4,0.4,0.3,0.6
									C252.1,165.1,251.9,165.2,251.8,165.2z"/>
								<path style="&st16;" d="M215.5,101.3c27.2-10.1,53.1-12.1,67.6-6.4c-14.6-15.4-44.1-19.5-73.3-8.7
									c-29.1,10.9-48.7,33.4-49.7,54.5C167.4,127,188.3,111.4,215.5,101.3z"/>
								<path style="&st16;" d="M237,158.8c-27.2,10.1-53.1,12.1-67.6,6.4c14.6,15.4,44.1,19.5,73.3,8.7
									c29.1-10.9,48.7-33.4,49.7-54.5C285.1,133.2,264.2,148.7,237,158.8z"/>
							</g>
						</g>
						<g style="&st17;">
							<g>
								<path style="&st1;" d="M189.6,113.1c-1.4,0.5-3,0.1-3.9-1.1c-1.2-1.5-1-3.7,0.5-4.9c0.6-0.5,1.2-0.9,1.8-1.4
									c1.5-1.2,3.7-0.9,4.9,0.7c1.2,1.5,0.9,3.7-0.7,4.9c-0.6,0.4-1.1,0.8-1.6,1.3C190.2,112.8,189.9,113,189.6,113.1z"/>
							</g>
							<g>
								<path style="&st1;" d="M171.7,154.2c-1.8,0.7-3.8-0.2-4.5-2.1c-4.2-11.4-0.4-24.9,10.7-37.2c1.3-1.4,3.5-1.6,4.9-0.3
									c1.4,1.3,1.6,3.5,0.3,4.9c-9.2,10.2-12.6,21.2-9.3,30C174.4,151.5,173.5,153.5,171.7,154.2z"/>
							</g>
						</g>
					</g>
					<g>
						<path style="&st18;" d="M285.2,284.3c-27,10.1-55.5,16.2-84.8,17.9c-0.8,0-1.5-0.6-1.6-1.4c0-0.8,0.6-1.5,1.4-1.6
							c57-3.4,111.2-23.4,156.8-57.7c0.7-0.5,1.6-0.4,2.1,0.3c0.5,0.7,0.4,1.6-0.3,2.1C336.1,261,311.4,274.6,285.2,284.3z"/>
					</g>
					<path style="&st19;" d="M327.9,299.1c0.6,1.6-0.2,3.3-1.8,3.9L264,326.1c-1.6,0.6-3.3-0.2-3.9-1.8l-15.7-42
						c-0.6-1.6,0.2-3.3,1.8-3.9l62.1-23.2c1.6-0.6,3.3,0.2,3.9,1.8L327.9,299.1z"/>
					<path style="&st4;" d="M327.9,299.1c0.6,1.6-0.2,3.3-1.8,3.9L264,326.1c-1.6,0.6-3.3-0.2-3.9-1.8l-12.3-32.9
						c-0.6-1.6,0.2-3.3,1.8-3.9l62.1-23.2c1.6-0.6,3.3,0.2,3.9,1.8L327.9,299.1z"/>
					<g>
						<path style="&st20;" d="M268.4,290.4c0.6,1.6-0.2,3.3-1.8,3.9l-6.7,2.5c-1.6,0.6-3.3-0.2-3.9-1.8l-0.6-1.7
							c-0.6-1.6,0.2-3.3,1.8-3.9l6.7-2.5c1.6-0.6,3.3,0.2,3.9,1.8L268.4,290.4z"/>
						<path style="&st20;" d="M290.1,282.3c0.6,1.6-0.2,3.3-1.8,3.9l-6.7,2.5c-1.5,0.6-3.3-0.2-3.9-1.8l-0.6-1.7
							c-0.6-1.5,0.2-3.3,1.8-3.9l6.7-2.5c1.6-0.6,3.3,0.2,3.9,1.8L290.1,282.3z"/>
						<path style="&st20;" d="M311.8,274.2c0.6,1.6-0.2,3.3-1.8,3.9l-6.7,2.5c-1.6,0.6-3.3-0.2-3.9-1.8l-0.6-1.7
							c-0.6-1.6,0.2-3.3,1.8-3.9l6.7-2.5c1.6-0.6,3.3,0.2,3.9,1.8L311.8,274.2z"/>
					</g>
					<g>
						<path style="&st8;" d="M269.3,292.9c0.6,1.6-0.2,3.3-1.8,3.9l-6.7,2.5c-1.6,0.6-3.3-0.2-3.9-1.8l-0.6-1.7
							c-0.6-1.6,0.2-3.3,1.8-3.9l6.7-2.5c1.6-0.6,3.3,0.2,3.9,1.8L269.3,292.9z"/>
						<path style="&st8;" d="M291,284.8c0.6,1.5-0.2,3.3-1.8,3.9l-6.7,2.5c-1.6,0.6-3.3-0.2-3.9-1.8l-0.6-1.7
							c-0.6-1.6,0.2-3.3,1.8-3.9l6.7-2.5c1.5-0.6,3.3,0.2,3.9,1.8L291,284.8z"/>
						<path style="&st8;" d="M312.7,276.7c0.6,1.5-0.2,3.3-1.8,3.9l-6.7,2.5c-1.6,0.6-3.3-0.2-3.9-1.8l-0.6-1.7
							c-0.6-1.6,0.2-3.3,1.8-3.9l6.7-2.5c1.6-0.6,3.3,0.2,3.9,1.8L312.7,276.7z"/>
					</g>
					<g>
						<path style="&st21;" d="M318,290.8c0.6,1.6-0.2,3.3-1.8,3.9l-50.1,18.7c-1.6,0.6-3.3-0.2-3.9-1.8l-0.6-1.7
							c-0.6-1.6,0.2-3.3,1.8-3.9l50.1-18.7c1.6-0.6,3.3,0.2,3.9,1.8L318,290.8z"/>
						<path style="&st7;" d="M318.9,293.3c0.6,1.6-0.2,3.3-1.8,3.9L267,315.9c-1.6,0.6-3.3-0.2-3.9-1.8l-0.6-1.7
							c-0.6-1.6,0.2-3.3,1.8-3.9l50.1-18.7c1.6-0.6,3.3,0.2,3.9,1.8L318.9,293.3z"/>
					</g>
				</g>
				<path style="&st22;" d="M348.8,128.5c7.8,16,12.2,34,12.2,53c0,66.6-54,120.7-120.7,120.7c-40.8,0-76.9-20.3-98.7-51.3
					c19.6,40.1,60.8,67.6,108.4,67.6c66.6,0,120.7-54,120.7-120.7C370.7,172,362.6,148.1,348.8,128.5z"/>
			</g>
			<g>
				<path style="&st1;" d="M78.8,248.2v-27h-46v-8.8L77,149.2h14.5v61.6h13.9v10.5H91.5v27H78.8z M78.8,210.7v-33.1
					c0-5.2,0.2-10.4,0.5-15.5h-0.5c-3,5.8-5.5,10.1-8.2,14.6l-24.2,33.7v0.3H78.8z"/>
			</g>
			<g>
				<path style="&st1;" d="M423.3,248.2v-27h-46v-8.8l44.2-63.2H436v61.6h13.9v10.5H436v27H423.3z M423.3,210.7v-33.1
					c0-5.2,0.2-10.4,0.5-15.5h-0.5c-3,5.8-5.5,10.1-8.2,14.6l-24.2,33.7v0.3H423.3z"/>
			</g>
		</g>
		<g>
			<path style="&st23;" d="M205.4,308.7c0.8,0.8,0.8,2.1,0,2.9l-16,16c-0.8,0.8-2.1,0.8-2.9,0l-8.8-8.8c-0.8-0.8-0.8-2.1,0-2.9
				l16-16c0.8-0.8,2.1-0.8,2.9,0L205.4,308.7z"/>
			<g>
				
					<linearGradient id="SVGID_6_" gradientUnits="userSpaceOnUse" x1="2588.8694" y1="863.2958" x2="2588.8694" y2="916.3838" gradientTransform="matrix(0.7071 -0.7071 0.7071 0.7071 -2289.302 1494.1526)">
					<stop  offset="0" style="stop-color:#FFFFFF"/>
					<stop  offset="1" style="stop-color:#CED4F5"/>
				</linearGradient>
				<path style="&st24;" d="M143.1,283.1c4.6,9.4,24.6,33.6,32.3,42.3c0,0,8.1,1.3,19.1-8.7c10-11,8.7-19.1,8.7-19.1
					c-8.7-7.7-33-27.8-42.3-32.3c-1.5,3.9-4.9,6.5-8.1,9.7C149.6,278.2,147,281.6,143.1,283.1z"/>
				<path style="&st8;" d="M143.1,283.1c3.9-1.5,7.6-3.8,10.8-7c3.2-3.2,5.5-6.9,7-10.8c-15.6-7.5-28.8-11-28.8-11
					S135.5,267.6,143.1,283.1z"/>
			</g>
			<path style="&st25;" d="M175.6,281.7c4.5,4.5,4.5,11.7,0,16.1c-4.5,4.5-11.7,4.5-16.1,0c-4.5-4.5-4.5-11.7,0-16.1
				C163.9,277.2,171.1,277.2,175.6,281.7z"/>
			<path style="&st18;" d="M173.8,283.5c3.5,3.5,3.5,9.1,0,12.6c-3.5,3.5-9.1,3.5-12.6,0c-3.5-3.5-3.5-9.1,0-12.6
				C164.7,280,170.3,280,173.8,283.5z"/>
			<g>
				<path style="&st23;" d="M174,295.8c1.3-1.4,2-3,2.3-4.7h-17.6c0.3,1.7,1,3.4,2.3,4.7L174,295.8z"/>
				<path style="&st23;" d="M159.6,285.6c-0.4,0.9-0.7,1.8-0.9,2.7h17.6c-0.1-0.9-0.4-1.9-0.9-2.7H159.6z"/>
			</g>
			<path style="&st8;" d="M167.6,316.4c0,0-2.2,7,1.9,13.5c4.1,6.5,15.7,17.4,24.9,18c0,0-12.3-9-13.6-23L167.6,316.4z"/>
			<path style="&st8;" d="M194.1,289.8c0,0,7-2.2,13.5,1.9c6.5,4.1,17.4,15.7,18,24.9c0,0-9-12.3-23-13.6L194.1,289.8z"/>
			<path style="&st8;" d="M193.9,311.4c8.4,8.4,18.8,20.9,17.4,22.3c-1.3,1.3-13.8-9-22.3-17.4c-8.4-8.4-9.6-11.8-8.3-13.1
				C182.2,301.8,185.5,302.9,193.9,311.4z"/>
		</g>
		<g>
			<polygon style="&st26;" points="317.4,341.9 311.9,336.6 304.4,337 307.7,330.2 305,323.1 312.5,324.1 318.4,319.4 319.7,326.9 
				326,331 319.4,334.6 			"/>
			<polygon style="&st26;" points="104.6,295.6 100.2,294.5 96.3,296.9 96,292.3 92.5,289.4 96.8,287.7 98.5,283.4 101.4,286.9 
				106,287.3 103.5,291.1 			"/>
			<polygon style="&st26;" points="408.4,265.8 403.9,264.6 400,267 399.7,262.5 396.2,259.5 400.5,257.8 402.2,253.6 405.1,257.1 
				409.7,257.4 407.3,261.3 			"/>
			<polygon style="&st26;" points="261.2,48.8 257.3,45.1 252,45.3 254.3,40.5 252.4,35.5 257.7,36.2 261.9,32.9 262.8,38.2 
				267.3,41.1 262.6,43.6 			"/>
		</g>
		<g>
			<circle style="&st27;" cx="251.2" cy="337.4" r="1.3"/>
			<circle style="&st27;" cx="377.8" cy="320.6" r="1.3"/>
			<circle style="&st27;" cx="123.2" cy="169.9" r="1.3"/>
			<circle style="&st27;" cx="445.7" cy="34.3" r="1.3"/>
			<circle style="&st27;" cx="425.7" cy="92.8" r="1.3"/>
			<path style="&st27;" d="M242.1,30.3c0,0.7-0.6,1.3-1.3,1.3c-0.7,0-1.3-0.6-1.3-1.3c0-0.7,0.6-1.3,1.3-1.3
				C241.5,29,242.1,29.6,242.1,30.3z"/>
			<circle style="&st27;" cx="282" cy="100.2" r="1.3"/>
			<circle style="&st27;" cx="135.9" cy="22.3" r="1.3"/>
			<circle style="&st27;" cx="27.9" cy="106.6" r="1.3"/>
			<circle style="&st27;" cx="81.2" cy="56.2" r="1.3"/>
			<circle style="&st27;" cx="445.7" cy="334.7" r="1.3"/>
			<circle style="&st27;" cx="361.2" cy="46.3" r="1.3"/>
			<path style="&st27;" d="M187.1,72.7c0,0.7-0.6,1.3-1.3,1.3c-0.7,0-1.3-0.6-1.3-1.3c0-0.7,0.6-1.3,1.3-1.3
				C186.5,71.4,187.1,72,187.1,72.7z"/>
			<circle style="&st27;" cx="53" cy="163.8" r="1.3"/>
			<circle style="&st27;" cx="434.3" cy="157.2" r="1.3"/>
			<circle style="&st27;" cx="307.5" cy="57.5" r="1.3"/>
			<circle style="&st27;" cx="47.7" cy="298.9" r="1.3"/>
			<circle style="&st27;" cx="135.5" cy="357.3" r="1.3"/>
		</g>
	</g>
</g>
<g id="DESIGNED_BY_FREEPIK">
</g>
</svg>
