<?xml version="1.0" encoding="utf-8"?>
<!-- Generator: Adobe Illustrator 16.0.0, SVG Export Plug-In . SVG Version: 6.00 Build 0)  -->
<!DOCTYPE svg PUBLIC "-//W3C//DTD SVG 1.1//EN" "http://www.w3.org/Graphics/SVG/1.1/DTD/svg11.dtd">
<svg version="1.1" id="Layer_1" xmlns="http://www.w3.org/2000/svg" xmlns:xlink="http://www.w3.org/1999/xlink" x="0px" y="0px"
	 width="250px" height="250px" viewBox="-113 -113 250 250" enable-background="new -113 -113 250 250" xml:space="preserve">
<path fill="#ffffff" d="M12-35.5c14.4,0,26.1,11.7,26.1,26.1c0,6.9-2.3,15.2-15.4,26.6c19.5,9.3,31.4,25,35.5,42.3h-92.6
	c4.5-19.9,19-35.1,35.7-42.2C-6.2,11.2-14.1,1.5-14.1-9.4C-14.1-23.8-2.4-35.5,12-35.5z M12-45C-7.7-45-23.6-29.1-23.6-9.4
	c0,9.6,3.8,18.2,9.9,24.6C-37.6,29.5-45,55.6-45,69H69c0-13.3-7.9-39.3-31.3-53.7c6.1-6.4,9.9-15.1,9.9-24.6
	C47.6-29.1,31.7-45,12-45z"/>
</svg>
